# Blender v2.92.0 OBJ File: ''
# www.blender.org
mtllib ground.mtl
o Circle
v 22.168352 -0.023493 -9.011410
v 9.289964 -0.023503 22.079842
v -21.801279 -0.023497 9.201431
v -13.036916 -0.023501 19.880842
v -16.642910 -0.023501 16.921478
v -16.642910 -0.023501 16.921478
v 19.969341 -0.023491 -13.125458
v 22.168352 -0.023493 -9.011410
v -8.922864 -0.023503 22.079847
v -13.036916 -0.023501 19.880842
v -4.458866 -0.023487 -23.243933
v 0.183542 -0.023487 -23.701172
v 0.183542 -0.023487 -23.701172
v 17.009974 -0.023489 -16.731449
v 19.969341 -0.023491 -13.125458
v -4.458860 -0.023503 23.433987
v -8.922864 -0.023503 22.079847
v -8.922869 -0.023487 -21.889793
v -4.458866 -0.023487 -23.243933
v 13.403975 -0.023489 -19.690807
v 17.009974 -0.023489 -16.731449
v 0.183550 -0.023503 23.891224
v -4.458860 -0.023503 23.433987
v -13.036917 -0.023489 -19.690788
v -8.922869 -0.023487 -21.889793
v 9.289921 -0.023487 -21.889807
v 13.403975 -0.023489 -19.690807
v 4.825959 -0.023503 23.433985
v 0.183550 -0.023503 23.891224
v -16.642910 -0.023489 -16.731426
v -13.036917 -0.023489 -19.690788
v 4.825914 -0.023487 -23.243940
v 9.289921 -0.023487 -21.889807
v 4.825959 -0.023503 23.433985
v -19.602274 -0.023491 -13.125433
v -16.642910 -0.023489 -16.731426
v 4.825914 -0.023487 -23.243940
v 13.404013 -0.023501 19.880833
v 9.289964 -0.023503 22.079842
v -21.801277 -0.023493 -9.011385
v -19.602274 -0.023491 -13.125433
v 17.010006 -0.023501 16.921469
v 13.404013 -0.023501 19.880833
v -23.155416 -0.023493 -4.547383
v -21.801277 -0.023493 -9.011385
v 19.969368 -0.023499 13.315472
v 17.010006 -0.023501 16.921469
v -23.612656 -0.023495 0.095024
v -23.155416 -0.023493 -4.547383
v 22.168369 -0.023497 9.201418
v 19.969368 -0.023499 13.315472
v -23.155418 -0.023497 4.737431
v -23.612656 -0.023495 0.095024
v 23.522507 -0.023497 4.737412
v 22.168369 -0.023497 9.201418
v -23.155418 -0.023497 4.737431
v 23.979740 -0.023495 0.095003
v 23.522507 -0.023497 4.737412
v -19.602274 -0.023499 13.315483
v -21.801279 -0.023497 9.201431
v 23.522497 -0.023493 -4.547407
v 23.979740 -0.023495 0.095003
v -19.602274 -0.023499 13.315483
v 23.522497 -0.023493 -4.547407
v 0.806987 2.664845 -25.116426
v -8.299424 2.664845 -26.281832
v 22.760649 0.897156 -11.252340
v 24.048393 0.823072 5.795511
v 22.694239 0.823076 -7.953310
v 13.929898 0.823067 20.938932
v 17.535892 0.823068 17.979567
v -8.984756 1.400666 23.912737
v -4.520752 1.400666 25.266876
v -13.098807 1.400666 21.713732
v 9.228072 1.400666 23.912731
v -14.980610 2.334029 -23.264120
v -22.700653 2.334027 -18.105753
v -27.859018 2.334025 -10.385710
v -3.835420 2.664845 -24.659187
v 17.633417 2.664843 -18.146702
v 9.913365 2.664845 -23.305061
v -21.863171 1.400670 11.034321
v -16.704803 1.400668 18.754368
v 0.121658 1.400666 25.724113
v -29.213160 2.334024 -5.921709
v 20.495255 0.823069 14.373569
v -19.664165 1.400669 15.148373
v 22.694256 0.823070 10.259518
v 9.815849 0.823066 23.137939
v 5.449360 2.664845 -24.659195
v -29.670397 2.334022 -1.279302
v -27.859020 2.334019 7.827106
vt 3.501953 -0.747775
vt 1.748896 3.484489
vt -2.483368 1.731429
vt -1.290328 0.398582
vt -1.781190 0.398582
vt -1.781190 0.398582
vt 3.202615 0.398582
vt 3.501953 0.398582
vt 3.501953 0.398582
vt -0.730307 0.398582
vt -1.290328 0.398582
vt -0.122650 0.398582
vt 0.509293 0.398582
vt 0.509293 0.398582
vt 2.799774 0.398582
vt 3.202615 0.398582
vt -0.122649 0.398582
vt -0.730307 0.398582
vt -0.730308 0.398582
vt -0.122650 0.398582
vt 2.308911 0.398582
vt 2.799774 0.398582
vt 0.509294 0.398582
vt -0.122649 0.398582
vt -1.290328 0.398582
vt -0.730308 0.398582
vt 1.748890 0.398582
vt 2.308911 0.398582
vt 1.141238 0.398582
vt 0.509294 0.398582
vt -1.781190 0.398582
vt -1.290328 0.398582
vt 1.141232 0.398582
vt 1.748890 0.398582
vt 1.748896 0.398582
vt 1.141238 0.398582
vt -2.184031 0.398582
vt -1.781190 0.398582
vt 1.141232 0.398582
vt 2.308916 0.398582
vt 1.748896 0.398582
vt -2.483368 0.398582
vt -2.184031 0.398582
vt 2.799778 0.398582
vt 2.308916 0.398582
vt -2.667699 0.398582
vt -2.483368 0.398582
vt 3.202619 0.398582
vt 2.799778 0.398582
vt -2.729940 0.398582
vt -2.667699 0.398582
vt 3.501956 0.398582
vt 3.202619 0.398582
vt -2.667699 0.398582
vt -2.729940 0.398582
vt 3.686286 0.398582
vt 3.501956 0.398582
vt -2.483368 0.398582
vt -2.667699 0.398582
vt 3.748527 0.398582
vt 3.686286 0.398582
vt -2.184031 0.398582
vt -2.483368 0.398582
vt 3.686285 0.398582
vt 3.748527 0.398582
vt -2.184031 0.398582
vt 3.686285 0.398582
vt 0.509293 1.131026
vt -0.730308 1.131026
vt 3.501953 1.131026
vt 1.748890 -2.500834
vt 2.308911 -2.201497
vt 2.799774 -1.798658
vt 3.202615 -1.307796
vt 3.686285 -0.140117
vt 3.748527 0.491826
vt 3.686286 1.123769
vt 0.302902 1.731427
vt 0.690957 1.123769
vt 0.302902 1.123769
vt 0.690957 -0.747775
vt 0.302902 -0.747775
vt 2.308916 0.786637
vt 2.799778 0.786637
vt 1.141238 3.668821
vt 0.509294 3.731062
vt -0.730307 0.833979
vt -0.122649 0.833979
vt -1.290328 0.833979
vt 1.748896 0.833979
vt -2.667699 1.123772
vt -2.729940 0.491829
vt 0.302902 1.731429
vt 0.868077 -2.500832
vt 0.302902 -2.500832
vt 0.302902 -0.747772
vt 0.868077 -1.798655
vt 0.868077 -0.747772
vt -2.483368 -0.747772
vt -2.184031 -1.307792
vt -1.781190 -1.798655
vt -1.290328 -2.201495
vt -0.730308 -2.500832
vt -0.122650 1.131026
vt 2.799774 1.131026
vt 1.748890 1.131026
vt -2.483368 0.833979
vt -1.781190 0.833979
vt 0.509294 0.833979
vt -0.730308 0.963757
vt -1.781190 0.963757
vt 0.302902 -0.140114
vt 0.868077 -0.140114
vt 0.302902 2.782311
vt 0.690957 2.291448
vt 0.302902 2.291448
vt 0.509294 3.731062
vt -0.122649 3.668821
vt -0.730307 3.484490
vt -1.290328 3.185153
vt -1.781190 2.782313
vt -2.184031 2.291450
vt -2.483368 1.731429
vt 1.748896 3.484489
vt 0.302902 2.782313
vt 0.738299 2.291450
vt 0.738299 2.782313
vt 0.302902 2.291450
vt 0.738299 1.731429
vt 3.686286 1.123769
vt 3.501956 1.731427
vt 3.501953 -0.747775
vt 3.202619 2.291448
vt 1.748896 3.484489
vt 2.799778 2.782311
vt 2.308916 3.185152
vt 0.302902 3.484489
vt 0.690957 3.484489
vt 0.690957 1.731427
vt -0.730308 -2.500832
vt -0.122650 -2.685163
vt 0.509293 -2.747404
vt 1.141232 -2.685164
vt 1.748890 -2.500834
vt 2.799774 -1.798658
vt 3.501953 -0.747775
vt 1.141232 1.131026
vt 1.035346 -1.798658
vt 0.302902 -1.798658
vt -2.729940 0.491829
vt -2.667699 -0.140114
vt -2.483368 1.731429
vt -2.483368 -0.747772
vt -1.781190 -1.798655
vt -0.730308 -2.500832
vt 0.868077 0.491829
vt 0.302902 0.491829
vt 0.868077 1.731429
vt 1.972216 -2.437503
vt 1.796442 -2.577996
vt 1.958073 -2.375979
vt 0.540189 -0.493336
vt -0.735409 -0.556497
vt 0.421159 -1.006603
vt -2.037638 0.899272
vt -3.194206 0.636880
vt -2.049455 1.249214
vt 3.898424 3.358068
vt 3.998828 3.560085
vt 3.886608 3.708011
vt 1.748896 0.786637
vt 0.302902 -1.798655
vt 0.690957 2.782311
vt 1.035346 -0.747775
vn 0.2203 -0.9729 -0.0703
vn 0.1841 -0.9235 0.3364
vn -0.2067 -0.9708 0.1215
vn 0.0000 0.0000 1.0000
vn -0.1641 0.4891 0.8567
vn -0.0107 0.4678 0.8838
vn 0.0117 0.4637 0.8859
vn -0.0050 0.6094 0.7929
vn -0.0215 0.7351 0.6777
vn 0.1613 0.8314 0.5318
vn 0.1933 -0.8564 -0.4787
vn -0.9890 -0.1465 0.0209
vn -0.3772 0.4754 0.7948
vn -0.0000 -1.0000 0.0000
vn -0.6573 0.4202 0.6256
vn -0.3767 0.8048 0.4586
vn -0.9784 0.1829 0.0964
vn -0.8784 0.4778 0.0053
vn -0.6573 0.7131 -0.2438
vn -0.9079 -0.3838 -0.1686
vn -0.5502 -0.6484 0.5261
vn -0.2746 0.8128 -0.5138
vn -0.3222 0.8108 -0.4886
vn -0.3289 0.8104 -0.4849
vn -0.4185 0.7992 -0.4314
vn -0.4355 0.7960 -0.4204
vn -0.1286 0.7519 -0.6466
vn -0.0352 0.7772 -0.6283
vn 0.1260 0.7854 -0.6060
vn 0.2338 0.7716 -0.5916
vn 0.1160 0.7862 -0.6070
vn 0.2565 0.7674 -0.5876
vn 0.3576 0.7432 -0.5654
vn -0.8145 -0.3270 -0.4792
vn 0.4074 0.9097 -0.0810
vn 0.3782 0.9253 -0.0289
vn 0.0153 -0.2884 0.9574
vn -0.0235 -0.9715 -0.2359
vn 0.3345 0.9274 0.1673
vn 0.7329 -0.1824 0.6554
vn 0.8980 -0.1690 0.4063
vn 0.2930 0.8928 0.3421
vn 0.2855 0.8579 0.4273
vn -0.0900 0.4802 0.8725
vn -0.6526 -0.5868 0.4794
vn -0.3768 -0.4686 0.7990
vn -0.1869 -0.8726 0.4512
vn 0.3946 0.7320 -0.5554
vn 0.4903 0.6961 -0.5244
vn -0.0415 -0.3006 -0.9529
vn 0.3483 0.9349 0.0687
vn 0.3480 0.9349 0.0697
vn -0.5165 0.7753 -0.3636
vn -0.5444 0.7659 -0.3422
vn 0.5432 0.6718 -0.5036
vn 0.6328 0.6217 -0.4617
vn 0.7005 0.5748 -0.4230
vn 0.7411 0.5420 -0.3961
vn 0.4063 -0.8981 0.1683
vn -0.6182 0.7344 -0.2803
vn -0.0000 1.0000 -0.0000
vn -0.1756 0.4902 0.8538
vn 0.9849 -0.1708 -0.0276
vn 0.6052 -0.2153 -0.7664
vn 0.4074 0.9096 -0.0810
vn -0.8466 0.5322 -0.0051
vn 0.1995 0.8229 0.5320
vn 0.4082 0.7275 -0.5515
vn 0.0343 -0.7886 0.6139
usemtl Material.001
s 1
f 1/1/1 2/2/2 3/3/3
f 4/4/4 5/5/4 6/6/4
f 7/7/4 8/8/4 1/9/4
f 9/10/4 10/11/4 4/4/4
f 11/12/4 12/13/4 13/14/4
f 14/15/4 15/16/4 7/7/4
f 16/17/4 17/18/4 9/10/4
f 18/19/4 19/20/4 11/12/4
f 20/21/4 21/22/4 14/15/4
f 22/23/4 23/24/4 16/17/4
f 24/25/4 25/26/4 18/19/4
f 26/27/4 27/28/4 20/21/4
f 28/29/4 29/30/4 22/23/4
f 30/31/4 31/32/4 24/25/4
f 32/33/4 33/34/4 26/27/4
f 2/35/4 34/36/4 28/29/4
f 35/37/4 36/38/4 30/31/4
f 13/14/4 37/39/4 32/33/4
f 38/40/4 39/41/4 2/35/4
f 40/42/4 41/43/4 35/37/4
f 42/44/4 43/45/4 38/40/4
f 44/46/4 45/47/4 40/42/4
f 46/48/4 47/49/4 42/44/4
f 48/50/4 49/51/4 44/46/4
f 50/52/4 51/53/4 46/48/4
f 52/54/4 53/55/4 48/50/4
f 54/56/4 55/57/4 50/52/4
f 3/58/4 56/59/4 52/54/4
f 57/60/4 58/61/4 54/56/4
f 59/62/4 60/63/4 3/58/4
f 61/64/4 62/65/4 57/60/4
f 6/6/4 63/66/4 59/62/4
f 1/9/4 64/67/4 61/64/4
f 32/33/5 65/68/6 13/14/7
f 11/12/8 66/69/9 18/19/10
f 1/9/1 66/69/11 67/70/12
f 26/71/13 20/72/14 14/73/15
f 14/73/15 7/74/14 1/1/16
f 1/1/17 61/75/14 57/76/14
f 57/76/14 54/77/18 1/1/17
f 50/78/19 68/79/20 54/80/18
f 54/80/18 69/81/21 1/82/17
f 2/35/22 70/83/23 38/40/24
f 38/40/24 71/84/25 42/44/26
f 2/2/27 28/85/14 22/86/28
f 16/17/29 72/87/30 73/88/31
f 9/10/32 74/89/33 72/87/30
f 22/23/28 75/90/34 2/35/27
f 3/3/35 52/91/14 48/92/36
f 3/93/3 76/94/37 18/95/38
f 40/96/39 77/97/40 78/98/41
f 40/99/39 35/100/14 30/101/42
f 30/101/42 24/102/14 18/103/43
f 13/14/7 79/104/44 11/12/8
f 26/27/13 80/105/45 81/106/46
f 2/35/2 82/107/47 3/58/3
f 4/4/48 83/108/49 74/89/33
f 22/23/28 73/88/31 84/109/50
f 30/31/42 76/110/37 77/111/40
f 44/112/51 78/98/41 85/113/52
f 42/114/26 86/115/53 46/116/54
f 18/103/38 1/1/1 3/3/3
f 4/4/4 10/11/4 5/5/4
f 7/7/4 15/16/4 8/8/4
f 9/10/4 17/18/4 10/11/4
f 11/12/4 19/20/4 12/13/4
f 14/15/4 21/22/4 15/16/4
f 16/17/4 23/24/4 17/18/4
f 18/19/4 25/26/4 19/20/4
f 20/21/4 27/28/4 21/22/4
f 22/23/4 29/30/4 23/24/4
f 24/25/4 31/32/4 25/26/4
f 26/27/4 33/34/4 27/28/4
f 28/29/4 34/36/4 29/30/4
f 30/31/4 36/38/4 31/32/4
f 32/33/4 37/39/4 33/34/4
f 2/35/4 39/41/4 34/36/4
f 35/37/4 41/43/4 36/38/4
f 13/14/4 12/13/4 37/39/4
f 38/40/4 43/45/4 39/41/4
f 40/42/4 45/47/4 41/43/4
f 42/44/4 47/49/4 43/45/4
f 44/46/4 49/51/4 45/47/4
f 46/48/4 51/53/4 47/49/4
f 48/50/4 53/55/4 49/51/4
f 50/52/4 55/57/4 51/53/4
f 52/54/4 56/59/4 53/55/4
f 54/56/4 58/61/4 55/57/4
f 3/58/4 60/63/4 56/59/4
f 57/60/4 62/65/4 58/61/4
f 59/62/4 63/66/4 60/63/4
f 61/64/4 64/67/4 62/65/4
f 6/6/4 5/5/4 63/66/4
f 1/9/4 8/8/4 64/67/4
f 84/117/50 73/118/14 72/119/14
f 72/119/14 74/120/14 83/121/14
f 83/121/14 87/122/14 82/123/47
f 75/124/34 84/117/50 82/123/47
f 84/117/50 72/119/14 82/123/47
f 72/119/14 83/121/14 82/123/47
f 6/125/55 87/126/56 83/127/49
f 59/128/57 82/129/58 87/126/56
f 68/130/20 88/131/14 69/132/21
f 88/131/14 86/133/14 89/134/59
f 86/133/14 71/135/14 89/134/59
f 71/135/14 70/136/14 89/134/59
f 69/132/21 88/131/14 89/134/59
f 2/137/2 69/81/21 89/138/59
f 46/116/54 88/139/60 50/78/19
f 66/140/11 79/141/61 65/142/61
f 65/142/61 90/143/14 66/140/11
f 90/143/14 81/144/46 66/140/11
f 81/144/46 80/145/45 66/140/11
f 80/145/45 67/146/12 66/140/11
f 26/27/13 90/147/62 32/33/5
f 1/82/16 80/148/45 14/149/15
f 91/150/63 85/151/14 92/152/64
f 85/151/14 78/153/41 92/152/64
f 78/153/41 77/154/40 92/152/64
f 77/154/40 76/155/37 92/152/64
f 44/112/51 91/156/63 48/157/36
f 48/157/36 92/158/64 3/93/65
f 67/159/66 1/160/66 69/161/66
f 66/162/67 76/163/67 18/164/67
f 3/165/68 92/166/68 82/167/68
f 2/168/69 89/169/69 75/170/69
f 32/33/5 90/147/62 65/68/6
f 11/12/8 79/104/44 66/69/9
f 1/9/1 18/19/38 66/69/11
f 50/78/19 88/139/60 68/79/20
f 54/80/18 68/79/20 69/81/21
f 2/35/22 89/171/22 70/83/23
f 38/40/24 70/83/23 71/84/25
f 16/17/29 9/10/32 72/87/30
f 9/10/32 4/4/48 74/89/33
f 22/23/28 84/109/50 75/90/34
f 3/93/3 92/158/64 76/94/37
f 40/96/39 30/172/42 77/97/40
f 13/14/7 65/68/6 79/104/44
f 26/27/13 14/15/15 80/105/45
f 2/35/2 75/90/34 82/107/47
f 4/4/48 6/6/55 83/108/49
f 22/23/28 16/17/29 73/88/31
f 30/31/42 18/19/43 76/110/37
f 44/112/51 40/96/39 78/98/41
f 42/114/26 71/173/25 86/115/53
f 6/125/55 59/128/57 87/126/56
f 59/128/57 3/93/58 82/129/58
f 2/137/2 1/82/1 69/81/21
f 46/116/54 86/115/53 88/139/60
f 26/27/13 81/106/46 90/147/62
f 1/82/16 67/174/12 80/148/45
f 44/112/51 85/113/52 91/156/63
f 48/157/36 91/156/63 92/158/64
